<svg width="182" height="53" viewBox="0 0 182 53" fill="none" xmlns="http://www.w3.org/2000/svg">
<path d="M15.8545 16.7871C16.1415 16.7871 16.3567 16.8588 16.5719 17.074C16.7872 17.2893 16.8589 17.5045 16.8589 17.8632V20.8763C16.8589 21.1632 16.7872 21.3784 16.5719 21.5937C16.4285 21.8089 16.1415 21.8806 15.8545 21.8806H5.0218V28.0503C5.0218 28.409 4.95006 28.6242 4.73484 28.7677C4.51962 28.9111 4.3044 29.0546 4.01744 29.0546H1.0761C0.7174 29.0546 0.50218 28.9829 0.28696 28.7677C0.07174 28.5524 0 28.3372 0 28.0503V1.79342C0 1.14776 0.3587 0.789062 1.00436 0.789062H19.0828C19.3698 0.789062 19.6568 0.860802 19.8002 1.07602C19.9437 1.29124 20.0872 1.50646 20.0872 1.79342V4.8065C20.0872 5.1652 20.0155 5.38042 19.8002 5.59564C19.585 5.81086 19.3698 5.8826 19.0828 5.8826H5.0218V16.7871H15.8545Z" fill="#0B85C3"/>
<path d="M51.1506 29.1264C50.4332 29.1264 50.0745 28.9112 50.0745 28.409C50.0745 28.1221 50.0745 27.9786 50.0745 27.9069C50.0745 27.8351 50.1462 27.7634 50.1462 27.7634L61.9833 0.78914C62.055 0.64566 62.1985 0.50218 62.2703 0.28696C62.4137 0.07174 62.7724 0 63.2746 0H63.4898C63.7768 0 63.992 0 64.1355 0.07174C64.279 0.14348 64.4225 0.21522 64.4942 0.28696C64.4942 0.43044 64.5659 0.57392 64.5659 0.64566C64.5659 0.7174 64.6377 0.86088 64.6377 0.86088C65.5703 3.08482 66.4312 5.0218 67.1486 6.60008C67.866 8.17836 68.5116 9.61316 69.0856 10.8327C69.6595 12.0523 70.2334 13.2002 70.7356 14.2763C71.2378 15.3524 71.8117 16.5002 72.3856 17.7198C72.9595 18.9394 73.6052 20.3742 74.2508 21.9524C74.9682 23.5307 75.7574 25.4677 76.69 27.6916L76.7617 27.9786C76.7617 28.0503 76.8335 28.1938 76.8335 28.2656C76.8335 28.3373 76.8335 28.409 76.8335 28.409C76.8335 28.9112 76.4748 29.1264 75.7574 29.1264H51.1506ZM57.105 24.0329H69.7312L63.2746 9.3262L57.105 24.0329Z" fill="#FAAB34"/>
<path d="M94.6967 25.109C95.8445 25.109 97.0641 24.8938 98.2119 24.4634C99.3598 24.0329 100.436 23.459 101.369 22.5981C101.512 22.4547 101.655 22.3829 101.871 22.3112C102.086 22.2394 102.229 22.1677 102.445 22.1677C102.732 22.1677 102.947 22.2394 103.09 22.4547L104.74 24.7503C104.812 24.8938 104.884 25.0373 104.884 25.1808C104.884 25.4677 104.812 25.683 104.597 25.8982C104.382 26.1134 104.166 26.3286 104.023 26.4721C102.732 27.4047 101.369 28.1939 99.7902 28.7678C98.2837 29.3417 96.5619 29.6287 94.7684 29.6287C92.7597 29.6287 90.8227 29.27 89.0292 28.4808C87.2357 27.6917 85.6574 26.6873 84.2944 25.3243C82.9313 23.9612 81.927 22.3829 81.1378 20.5894C80.3487 18.7959 79.99 16.8589 79.99 14.8502C79.99 12.8415 80.3487 10.9045 81.1378 9.11101C81.927 7.31752 82.9313 5.73924 84.2944 4.37618C85.6574 3.01312 87.2357 2.00876 89.0292 1.21962C90.8227 0.430477 92.7597 0.0717773 94.7684 0.0717773C96.275 0.0717773 97.7815 0.286997 99.2163 0.789177C100.651 1.29136 102.158 2.00876 103.664 3.08486C104.31 3.5153 104.597 4.01748 104.597 4.44792C104.597 4.66314 104.525 4.80662 104.453 4.9501L102.803 7.38926C102.66 7.67622 102.373 7.8197 102.086 7.8197C102.014 7.8197 101.871 7.74796 101.727 7.67622C101.584 7.60448 101.369 7.461 101.225 7.31752C100.292 6.60012 99.288 6.0262 98.2837 5.59576C97.2076 5.16532 96.0598 4.9501 94.7684 4.9501C93.4054 4.9501 92.0423 5.23706 90.8227 5.73924C89.6031 6.24142 88.527 7.03056 87.5944 7.89144C86.6618 8.82406 85.9444 9.90015 85.4422 11.1197C84.94 12.3393 84.6531 13.6306 84.6531 15.0654C84.6531 16.4285 84.94 17.7916 85.4422 19.0111C85.9444 20.2307 86.6618 21.3068 87.5944 22.2394C88.527 23.1721 89.6031 23.8895 90.8227 24.3916C92.0423 24.8938 93.2619 25.109 94.6967 25.109Z" fill="#0B85C3"/>
<path d="M129.921 0.789062H108.973C108.471 0.789062 108.256 1.00428 108.256 1.50646V4.94998C108.256 5.5239 108.471 5.81086 108.973 5.81086H116.864V28.0503C116.864 28.6959 117.223 29.0546 117.869 29.0546H120.954C121.671 29.0546 122.03 28.6959 122.03 28.0503V5.81086H129.993C130.208 5.81086 130.423 5.73912 130.567 5.5239C130.71 5.30868 130.71 5.09346 130.71 4.94998V1.50646C130.638 1.00428 130.423 0.789062 129.921 0.789062Z" fill="#0B85C3"/>
<path d="M129.347 29.1265C128.63 29.1265 128.271 28.9113 128.271 28.4091C128.271 28.1221 128.271 27.9786 128.271 27.9069C128.271 27.8352 128.343 27.7634 128.343 27.7634L140.18 0.860917C140.252 0.717437 140.395 0.573957 140.467 0.358737C140.61 0.143517 140.897 0.0717773 141.399 0.0717773H141.615C141.902 0.0717773 142.117 0.0717773 142.26 0.143517C142.404 0.215257 142.547 0.286997 142.619 0.358737C142.691 0.430477 142.762 0.573957 142.762 0.645697C142.762 0.717437 142.834 0.860917 142.834 0.860917C143.767 3.08486 144.628 5.02184 145.345 6.60012C146.063 8.1784 146.708 9.6132 147.282 10.8328C147.856 12.0524 148.43 13.2002 148.932 14.2763C149.434 15.3524 150.008 16.5002 150.582 17.7198C151.156 18.9394 151.802 20.3742 152.447 21.9525C153.165 23.5308 153.954 25.4677 154.887 27.6917L154.958 27.9786C154.958 28.0504 155.03 28.1939 155.03 28.2656C155.03 28.3373 155.03 28.4091 155.03 28.4091C155.03 28.9113 154.671 29.1265 154.026 29.1265H129.347V29.1265ZM135.373 24.0329H147.999L141.543 9.32624L135.373 24.0329Z" fill="#FAAB34"/>
<path d="M179.996 24.0328C180.283 24.0328 180.498 24.1046 180.713 24.3198C180.928 24.535 181 24.822 181 25.1089V28.0503C181 28.3372 180.928 28.5524 180.713 28.7677C180.498 28.9829 180.283 29.0546 179.996 29.0546H161.271C160.626 29.0546 160.267 28.6959 160.267 28.0503V1.79342C160.267 1.50646 160.339 1.29124 160.554 1.07602C160.769 0.860802 160.984 0.789062 161.343 0.789062H164.285C164.571 0.789062 164.787 0.860802 165.002 1.07602C165.217 1.2195 165.289 1.50646 165.289 1.79342V24.0328H179.996Z" fill="#0B85C3"/>
<path d="M42.9724 17.2175C43.618 16.6436 44.1919 15.9262 44.6224 15.2088C45.0528 14.4914 45.4115 13.7023 45.6985 12.8414C45.9137 11.9805 46.0572 11.1196 46.0572 10.2587C46.0572 8.96742 45.842 7.74784 45.3398 6.6C44.8376 5.45216 44.2637 4.4478 43.4028 3.58692C42.5419 2.72604 41.6093 2.00864 40.4615 1.50646C39.3136 1.00428 38.1658 0.789062 36.8027 0.789062H25.8983C25.5396 0.789062 25.5396 0.789062 25.5396 1.07602V27.9785C25.5396 28.6959 25.8983 29.1264 26.6157 29.1264H29.557C29.9157 29.1264 30.1309 29.0546 30.3461 28.8394C30.4896 28.6242 30.5613 28.409 30.5613 28.122V19.5849H35.1527L39.7441 27.9785C39.9593 28.3372 40.1745 28.5524 40.4615 28.7677C40.7484 28.9829 41.1071 29.1264 41.4658 29.1264L44.4072 28.9829C44.6224 28.9829 44.7659 28.9111 44.9811 28.7677C45.1246 28.6242 45.1963 28.4807 45.1963 28.2655C45.1963 28.122 45.1246 27.9068 45.0528 27.7633L40.1745 18.8675L40.8202 18.7241C41.6093 18.2936 42.3267 17.7914 42.9724 17.2175ZM37.0179 14.7784H30.5613V5.38042H37.0179C39.6006 5.38042 41.7528 7.46088 41.7528 10.1153C41.681 12.6979 39.6006 14.7784 37.0179 14.7784Z" fill="#0B85C3"/>
<path opacity="0.5" d="M151.717 35.4097V49.6284H149.266V35.4097H151.717ZM157.518 41.6304V43.5737H151.092V41.6304H157.518ZM158.328 35.4097V37.3628H151.092V35.4097H158.328ZM161.277 35.4097H163.465L167.576 46.3765L171.678 35.4097H173.865L168.436 49.6284H166.697L161.277 35.4097ZM160.281 35.4097H162.361L162.723 44.9019V49.6284H160.281V35.4097ZM172.781 35.4097H174.871V49.6284H172.42V44.9019L172.781 35.4097ZM180.398 35.4097V49.6284H177.947V35.4097H180.398Z" fill="#142D57"/>
</svg>
