<svg width="280" height="69" viewBox="0 0 280 69" fill="none" xmlns="http://www.w3.org/2000/svg">
<path d="M15.8545 16.7871C16.1415 16.7871 16.3567 16.8588 16.5719 17.074C16.7872 17.2893 16.8589 17.5045 16.8589 17.8632V20.8763C16.8589 21.1632 16.7872 21.3784 16.5719 21.5937C16.4285 21.8089 16.1415 21.8806 15.8545 21.8806H5.0218V28.0503C5.0218 28.409 4.95006 28.6242 4.73484 28.7677C4.51962 28.9111 4.3044 29.0546 4.01744 29.0546H1.0761C0.7174 29.0546 0.50218 28.9829 0.28696 28.7677C0.07174 28.5524 0 28.3372 0 28.0503V1.79342C0 1.14776 0.3587 0.789062 1.00436 0.789062H19.0828C19.3698 0.789062 19.6568 0.860802 19.8002 1.07602C19.9437 1.29124 20.0872 1.50646 20.0872 1.79342V4.8065C20.0872 5.1652 20.0155 5.38042 19.8002 5.59564C19.585 5.81086 19.3698 5.8826 19.0828 5.8826H5.0218V16.7871H15.8545Z" fill="#0B85C3"/>
<path d="M51.1506 29.1264C50.4332 29.1264 50.0745 28.9112 50.0745 28.409C50.0745 28.1221 50.0745 27.9786 50.0745 27.9069C50.0745 27.8351 50.1462 27.7634 50.1462 27.7634L61.9833 0.78914C62.055 0.64566 62.1985 0.50218 62.2703 0.28696C62.4137 0.07174 62.7724 0 63.2746 0H63.4898C63.7768 0 63.992 0 64.1355 0.07174C64.279 0.14348 64.4225 0.21522 64.4942 0.28696C64.4942 0.43044 64.5659 0.57392 64.5659 0.64566C64.5659 0.7174 64.6377 0.86088 64.6377 0.86088C65.5703 3.08482 66.4312 5.0218 67.1486 6.60008C67.866 8.17836 68.5116 9.61316 69.0856 10.8327C69.6595 12.0523 70.2334 13.2002 70.7356 14.2763C71.2378 15.3524 71.8117 16.5002 72.3856 17.7198C72.9595 18.9394 73.6052 20.3742 74.2508 21.9524C74.9682 23.5307 75.7574 25.4677 76.69 27.6916L76.7617 27.9786C76.7617 28.0503 76.8335 28.1938 76.8335 28.2656C76.8335 28.3373 76.8335 28.409 76.8335 28.409C76.8335 28.9112 76.4748 29.1264 75.7574 29.1264H51.1506ZM57.105 24.0329H69.7312L63.2746 9.3262L57.105 24.0329Z" fill="#FAAB34"/>
<path d="M94.6967 25.109C95.8445 25.109 97.0641 24.8938 98.2119 24.4634C99.3598 24.0329 100.436 23.459 101.369 22.5981C101.512 22.4547 101.655 22.3829 101.871 22.3112C102.086 22.2394 102.229 22.1677 102.445 22.1677C102.732 22.1677 102.947 22.2394 103.09 22.4547L104.74 24.7503C104.812 24.8938 104.884 25.0373 104.884 25.1808C104.884 25.4677 104.812 25.683 104.597 25.8982C104.382 26.1134 104.166 26.3286 104.023 26.4721C102.732 27.4047 101.369 28.1939 99.7902 28.7678C98.2837 29.3417 96.5619 29.6287 94.7684 29.6287C92.7597 29.6287 90.8227 29.27 89.0292 28.4808C87.2357 27.6917 85.6574 26.6873 84.2944 25.3243C82.9313 23.9612 81.927 22.3829 81.1378 20.5894C80.3487 18.7959 79.99 16.8589 79.99 14.8502C79.99 12.8415 80.3487 10.9045 81.1378 9.11102C81.927 7.31752 82.9313 5.73924 84.2944 4.37618C85.6574 3.01312 87.2357 2.00876 89.0292 1.21962C90.8227 0.430477 92.7597 0.0717773 94.7684 0.0717773C96.275 0.0717773 97.7815 0.286997 99.2163 0.789177C100.651 1.29136 102.158 2.00876 103.664 3.08486C104.31 3.5153 104.597 4.01748 104.597 4.44792C104.597 4.66314 104.525 4.80662 104.453 4.9501L102.803 7.38926C102.66 7.67622 102.373 7.81969 102.086 7.81969C102.014 7.81969 101.871 7.74796 101.727 7.67622C101.584 7.60448 101.369 7.461 101.225 7.31752C100.292 6.60012 99.288 6.0262 98.2837 5.59576C97.2076 5.16532 96.0598 4.9501 94.7684 4.9501C93.4054 4.9501 92.0423 5.23706 90.8227 5.73924C89.6031 6.24142 88.527 7.03056 87.5944 7.89144C86.6618 8.82405 85.9444 9.90016 85.4422 11.1197C84.94 12.3393 84.6531 13.6306 84.6531 15.0654C84.6531 16.4285 84.94 17.7916 85.4422 19.0111C85.9444 20.2307 86.6618 21.3068 87.5944 22.2394C88.527 23.1721 89.6031 23.8895 90.8227 24.3916C92.0423 24.8938 93.2619 25.109 94.6967 25.109Z" fill="#0B85C3"/>
<path d="M129.921 0.789062H108.973C108.471 0.789062 108.256 1.00428 108.256 1.50646V4.94998C108.256 5.5239 108.471 5.81086 108.973 5.81086H116.864V28.0503C116.864 28.6959 117.223 29.0546 117.869 29.0546H120.954C121.671 29.0546 122.03 28.6959 122.03 28.0503V5.81086H129.993C130.208 5.81086 130.423 5.73912 130.567 5.5239C130.71 5.30868 130.71 5.09346 130.71 4.94998V1.50646C130.638 1.00428 130.423 0.789062 129.921 0.789062Z" fill="#0B85C3"/>
<path d="M129.347 29.1265C128.63 29.1265 128.271 28.9113 128.271 28.4091C128.271 28.1221 128.271 27.9786 128.271 27.9069C128.271 27.8352 128.343 27.7634 128.343 27.7634L140.18 0.860917C140.252 0.717437 140.395 0.573957 140.467 0.358737C140.61 0.143517 140.897 0.0717773 141.399 0.0717773H141.615C141.902 0.0717773 142.117 0.0717773 142.26 0.143517C142.404 0.215257 142.547 0.286997 142.619 0.358737C142.691 0.430477 142.762 0.573957 142.762 0.645697C142.762 0.717437 142.834 0.860917 142.834 0.860917C143.767 3.08486 144.628 5.02184 145.345 6.60012C146.063 8.1784 146.708 9.6132 147.282 10.8328C147.856 12.0524 148.43 13.2002 148.932 14.2763C149.434 15.3524 150.008 16.5002 150.582 17.7198C151.156 18.9394 151.802 20.3742 152.447 21.9525C153.165 23.5308 153.954 25.4677 154.887 27.6917L154.958 27.9786C154.958 28.0504 155.03 28.1939 155.03 28.2656C155.03 28.3373 155.03 28.4091 155.03 28.4091C155.03 28.9113 154.671 29.1265 154.026 29.1265H129.347ZM135.373 24.0329H147.999L141.543 9.32624L135.373 24.0329Z" fill="#FAAB34"/>
<path d="M179.996 24.0328C180.283 24.0328 180.498 24.1046 180.713 24.3198C180.928 24.535 181 24.822 181 25.1089V28.0503C181 28.3372 180.928 28.5524 180.713 28.7677C180.498 28.9829 180.283 29.0546 179.996 29.0546H161.271C160.626 29.0546 160.267 28.6959 160.267 28.0503V1.79342C160.267 1.50646 160.339 1.29124 160.554 1.07602C160.769 0.860802 160.984 0.789062 161.343 0.789062H164.285C164.571 0.789062 164.787 0.860802 165.002 1.07602C165.217 1.2195 165.289 1.50646 165.289 1.79342V24.0328H179.996Z" fill="#0B85C3"/>
<path d="M42.9724 17.2175C43.618 16.6436 44.1919 15.9262 44.6224 15.2088C45.0528 14.4914 45.4115 13.7023 45.6985 12.8414C45.9137 11.9805 46.0572 11.1196 46.0572 10.2587C46.0572 8.96742 45.842 7.74784 45.3398 6.6C44.8376 5.45216 44.2637 4.4478 43.4028 3.58692C42.5419 2.72604 41.6093 2.00864 40.4615 1.50646C39.3136 1.00428 38.1658 0.789062 36.8027 0.789062H25.8983C25.5396 0.789062 25.5396 0.789062 25.5396 1.07602V27.9785C25.5396 28.6959 25.8983 29.1264 26.6157 29.1264H29.557C29.9157 29.1264 30.1309 29.0546 30.3461 28.8394C30.4896 28.6242 30.5613 28.409 30.5613 28.122V19.5849H35.1527L39.7441 27.9785C39.9593 28.3372 40.1745 28.5524 40.4615 28.7677C40.7484 28.9829 41.1071 29.1264 41.4658 29.1264L44.4072 28.9829C44.6224 28.9829 44.7659 28.9111 44.9811 28.7677C45.1246 28.6242 45.1963 28.4807 45.1963 28.2655C45.1963 28.122 45.1246 27.9068 45.0528 27.7633L40.1745 18.8675L40.8202 18.7241C41.6093 18.2936 42.3267 17.7914 42.9724 17.2175ZM37.0179 14.7784H30.5613V5.38042H37.0179C39.6006 5.38042 41.7528 7.46088 41.7528 10.1153C41.681 12.6979 39.6006 14.7784 37.0179 14.7784Z" fill="#0B85C3"/>
<path opacity="0.5" d="M6.98242 51.3042L2.73438 63.6284H0.166016L5.51758 49.4097H7.1582L6.98242 51.3042ZM10.5371 63.6284L6.2793 51.3042L6.09375 49.4097H7.74414L13.1152 63.6284H10.5371ZM10.332 58.355V60.2983H2.59766V58.355H10.332ZM20.918 61.4409V48.6284H23.2812V63.6284H21.1426L20.918 61.4409ZM14.043 58.4624V58.2573C14.043 57.4565 14.1374 56.7274 14.3262 56.0698C14.515 55.4058 14.7884 54.8361 15.1465 54.3608C15.5046 53.8791 15.9408 53.5112 16.4551 53.2573C16.9694 52.9969 17.5488 52.8667 18.1934 52.8667C18.8314 52.8667 19.3913 52.9904 19.873 53.2378C20.3548 53.4852 20.765 53.84 21.1035 54.3022C21.4421 54.758 21.7122 55.3049 21.9141 55.9429C22.1159 56.5744 22.2591 57.2775 22.3438 58.0522V58.7065C22.2591 59.4618 22.1159 60.1519 21.9141 60.7769C21.7122 61.4019 21.4421 61.9422 21.1035 62.3979C20.765 62.8537 20.3516 63.2052 19.8633 63.4526C19.3815 63.7 18.8184 63.8237 18.1738 63.8237C17.5358 63.8237 16.9596 63.6903 16.4453 63.4233C15.9375 63.1564 15.5046 62.7821 15.1465 62.3003C14.7884 61.8185 14.515 61.2521 14.3262 60.6011C14.1374 59.9435 14.043 59.2306 14.043 58.4624ZM16.3965 58.2573V58.4624C16.3965 58.9442 16.4388 59.3934 16.5234 59.8101C16.6146 60.2267 16.7546 60.5946 16.9434 60.9136C17.1322 61.2261 17.3763 61.4735 17.6758 61.6558C17.9818 61.8315 18.3464 61.9194 18.7695 61.9194C19.3034 61.9194 19.7428 61.8022 20.0879 61.5679C20.4329 61.3335 20.7031 61.0177 20.8984 60.6206C21.1003 60.217 21.237 59.7677 21.3086 59.2729V57.5054C21.2695 57.1213 21.1882 56.7632 21.0645 56.4312C20.9473 56.0991 20.7878 55.8094 20.5859 55.562C20.3841 55.3081 20.1335 55.1128 19.834 54.9761C19.541 54.8328 19.1927 54.7612 18.7891 54.7612C18.3594 54.7612 17.9948 54.8524 17.6953 55.0347C17.3958 55.217 17.1484 55.4676 16.9531 55.7866C16.7643 56.1056 16.6243 56.4767 16.5332 56.8999C16.4421 57.3231 16.3965 57.7756 16.3965 58.2573ZM28.0957 55.2104V63.6284H25.7422V53.062H27.959L28.0957 55.2104ZM27.7148 57.9546L26.9141 57.9448C26.9141 57.2157 27.0052 56.5418 27.1875 55.9233C27.3698 55.3049 27.6367 54.7677 27.9883 54.312C28.3398 53.8498 28.776 53.495 29.2969 53.2476C29.8242 52.9937 30.4329 52.8667 31.123 52.8667C31.6048 52.8667 32.0443 52.9383 32.4414 53.0815C32.8451 53.2183 33.1934 53.4364 33.4863 53.7358C33.7858 54.0353 34.0137 54.4194 34.1699 54.8882C34.3327 55.3569 34.4141 55.9233 34.4141 56.5874V63.6284H32.0605V56.7925C32.0605 56.2782 31.9824 55.8745 31.8262 55.5815C31.6764 55.2886 31.4583 55.0802 31.1719 54.9565C30.8919 54.8263 30.5566 54.7612 30.166 54.7612C29.7233 54.7612 29.3457 54.8459 29.0332 55.0151C28.7272 55.1844 28.4766 55.4155 28.2812 55.7085C28.0859 56.0015 27.9427 56.34 27.8516 56.7241C27.7604 57.1082 27.7148 57.5184 27.7148 57.9546ZM34.2676 57.3296L33.1641 57.5737C33.1641 56.9357 33.252 56.3335 33.4277 55.7671C33.61 55.1942 33.8737 54.6929 34.2188 54.2632C34.5703 53.827 35.0033 53.4852 35.5176 53.2378C36.0319 52.9904 36.6211 52.8667 37.2852 52.8667C37.8255 52.8667 38.3073 52.9416 38.7305 53.0913C39.1602 53.2345 39.5247 53.4624 39.8242 53.7749C40.1237 54.0874 40.3516 54.4943 40.5078 54.9956C40.6641 55.4904 40.7422 56.0894 40.7422 56.7925V63.6284H38.3789V56.7827C38.3789 56.2489 38.3008 55.8354 38.1445 55.5425C37.9948 55.2495 37.7799 55.0477 37.5 54.937C37.2201 54.8198 36.8848 54.7612 36.4941 54.7612C36.1296 54.7612 35.8073 54.8296 35.5273 54.9663C35.2539 55.0965 35.0228 55.2821 34.834 55.5229C34.6452 55.7573 34.502 56.0275 34.4043 56.3335C34.3132 56.6395 34.2676 56.9715 34.2676 57.3296ZM45.6836 53.062V63.6284H43.3203V53.062H45.6836ZM43.1641 50.2886C43.1641 49.9305 43.2812 49.6343 43.5156 49.3999C43.7565 49.159 44.0885 49.0386 44.5117 49.0386C44.9284 49.0386 45.2572 49.159 45.498 49.3999C45.7389 49.6343 45.8594 49.9305 45.8594 50.2886C45.8594 50.6401 45.7389 50.9331 45.498 51.1675C45.2572 51.4019 44.9284 51.519 44.5117 51.519C44.0885 51.519 43.7565 51.4019 43.5156 51.1675C43.2812 50.9331 43.1641 50.6401 43.1641 50.2886ZM50.5957 55.3179V63.6284H48.2422V53.062H50.459L50.5957 55.3179ZM50.1758 57.9546L49.4141 57.9448C49.4206 57.1961 49.5247 56.5093 49.7266 55.8843C49.9349 55.2593 50.2214 54.7222 50.5859 54.2729C50.957 53.8237 51.3997 53.4787 51.9141 53.2378C52.4284 52.9904 53.0013 52.8667 53.6328 52.8667C54.1406 52.8667 54.5996 52.9383 55.0098 53.0815C55.4264 53.2183 55.7812 53.4429 56.0742 53.7554C56.3737 54.0679 56.6016 54.4748 56.7578 54.9761C56.9141 55.4709 56.9922 56.0796 56.9922 56.8022V63.6284H54.6289V56.7925C54.6289 56.2847 54.554 55.8843 54.4043 55.5913C54.2611 55.2918 54.0495 55.0802 53.7695 54.9565C53.4961 54.8263 53.1543 54.7612 52.7441 54.7612C52.3405 54.7612 51.9792 54.8459 51.6602 55.0151C51.3411 55.1844 51.071 55.4155 50.8496 55.7085C50.6348 56.0015 50.4688 56.34 50.3516 56.7241C50.2344 57.1082 50.1758 57.5184 50.1758 57.9546ZM61.9141 53.062V63.6284H59.5508V53.062H61.9141ZM59.3945 50.2886C59.3945 49.9305 59.5117 49.6343 59.7461 49.3999C59.987 49.159 60.319 49.0386 60.7422 49.0386C61.1589 49.0386 61.4876 49.159 61.7285 49.3999C61.9694 49.6343 62.0898 49.9305 62.0898 50.2886C62.0898 50.6401 61.9694 50.9331 61.7285 51.1675C61.4876 51.4019 61.1589 51.519 60.7422 51.519C60.319 51.519 59.987 51.4019 59.7461 51.1675C59.5117 50.9331 59.3945 50.6401 59.3945 50.2886ZM70.4199 60.7671C70.4199 60.5327 70.3613 60.3211 70.2441 60.1323C70.127 59.937 69.9023 59.7612 69.5703 59.605C69.2448 59.4487 68.763 59.3055 68.125 59.1753C67.5651 59.0516 67.0508 58.9051 66.582 58.7358C66.1198 58.5601 65.7227 58.3485 65.3906 58.1011C65.0586 57.8537 64.8014 57.5607 64.6191 57.2222C64.4368 56.8836 64.3457 56.493 64.3457 56.0503C64.3457 55.6206 64.4401 55.2137 64.6289 54.8296C64.8177 54.4455 65.0879 54.1069 65.4395 53.814C65.791 53.521 66.2174 53.2899 66.7188 53.1206C67.2266 52.9513 67.793 52.8667 68.418 52.8667C69.3034 52.8667 70.0618 53.0164 70.6934 53.3159C71.3314 53.6089 71.8197 54.0093 72.1582 54.5171C72.4967 55.0184 72.666 55.5848 72.666 56.2163H70.3125C70.3125 55.9364 70.2409 55.6759 70.0977 55.4351C69.9609 55.1877 69.7526 54.9891 69.4727 54.8394C69.1927 54.6831 68.8411 54.605 68.418 54.605C68.0143 54.605 67.679 54.6701 67.4121 54.8003C67.1517 54.924 66.9564 55.0868 66.8262 55.2886C66.7025 55.4904 66.6406 55.7118 66.6406 55.9526C66.6406 56.1284 66.6732 56.2879 66.7383 56.4312C66.8099 56.5679 66.9271 56.6948 67.0898 56.812C67.2526 56.9227 67.474 57.0269 67.7539 57.1245C68.0404 57.2222 68.3984 57.3166 68.8281 57.4077C69.6354 57.577 70.3288 57.7951 70.9082 58.062C71.4941 58.3224 71.9434 58.661 72.2559 59.0776C72.5684 59.4878 72.7246 60.0086 72.7246 60.6401C72.7246 61.1089 72.6237 61.5386 72.4219 61.9292C72.2266 62.3133 71.9401 62.6486 71.5625 62.9351C71.1849 63.215 70.7324 63.4331 70.2051 63.5894C69.6842 63.7456 69.0983 63.8237 68.4473 63.8237C67.4902 63.8237 66.6797 63.6545 66.0156 63.3159C65.3516 62.9709 64.847 62.5314 64.502 61.9976C64.1634 61.4572 63.9941 60.8973 63.9941 60.3179H66.2695C66.2956 60.7541 66.416 61.1024 66.6309 61.3628C66.8522 61.6167 67.1257 61.8022 67.4512 61.9194C67.7832 62.0301 68.125 62.0854 68.4766 62.0854C68.8997 62.0854 69.2546 62.0301 69.541 61.9194C69.8275 61.8022 70.0456 61.646 70.1953 61.4507C70.3451 61.2489 70.4199 61.021 70.4199 60.7671ZM79.6289 53.062V54.7808H73.6719V53.062H79.6289ZM75.3906 50.4741H77.7441V60.7085C77.7441 61.034 77.7897 61.2847 77.8809 61.4604C77.9785 61.6297 78.112 61.7437 78.2812 61.8022C78.4505 61.8608 78.6491 61.8901 78.877 61.8901C79.0397 61.8901 79.196 61.8804 79.3457 61.8608C79.4954 61.8413 79.6159 61.8218 79.707 61.8022L79.7168 63.5991C79.5215 63.6577 79.2936 63.7098 79.0332 63.7554C78.7793 63.8009 78.4863 63.8237 78.1543 63.8237C77.6139 63.8237 77.1354 63.7293 76.7188 63.5405C76.3021 63.3452 75.9766 63.0295 75.7422 62.5933C75.5078 62.1571 75.3906 61.5776 75.3906 60.855V50.4741ZM83.8086 55.0737V63.6284H81.4551V53.062H83.7012L83.8086 55.0737ZM87.041 52.9937L87.0215 55.1812C86.8783 55.1551 86.722 55.1356 86.5527 55.1226C86.39 55.1095 86.2272 55.103 86.0645 55.103C85.6608 55.103 85.306 55.1616 85 55.2788C84.694 55.3895 84.4368 55.5522 84.2285 55.7671C84.0267 55.9754 83.8704 56.2293 83.7598 56.5288C83.6491 56.8283 83.584 57.1636 83.5645 57.5347L83.0273 57.5737C83.0273 56.9097 83.0924 56.2944 83.2227 55.728C83.3529 55.1616 83.5482 54.6636 83.8086 54.2339C84.0755 53.8042 84.4076 53.4689 84.8047 53.228C85.2083 52.9871 85.6738 52.8667 86.2012 52.8667C86.3444 52.8667 86.4974 52.8797 86.6602 52.9058C86.8294 52.9318 86.9564 52.9611 87.041 52.9937ZM94.1211 61.5093V56.4702C94.1211 56.0926 94.0527 55.7671 93.916 55.4937C93.7793 55.2202 93.571 55.0086 93.291 54.8589C93.0176 54.7091 92.6725 54.6343 92.2559 54.6343C91.8717 54.6343 91.5397 54.6994 91.2598 54.8296C90.9798 54.9598 90.7617 55.1356 90.6055 55.3569C90.4492 55.5783 90.3711 55.8289 90.3711 56.1089H88.0273C88.0273 55.6922 88.1283 55.2886 88.3301 54.8979C88.5319 54.5073 88.8249 54.159 89.209 53.853C89.5931 53.547 90.0521 53.3062 90.5859 53.1304C91.1198 52.9546 91.7188 52.8667 92.3828 52.8667C93.1771 52.8667 93.8802 53.0002 94.4922 53.2671C95.1107 53.534 95.5957 53.9377 95.9473 54.478C96.3053 55.0119 96.4844 55.6825 96.4844 56.4897V61.187C96.4844 61.6688 96.5169 62.1017 96.582 62.4858C96.6536 62.8634 96.7546 63.1922 96.8848 63.4722V63.6284H94.4727C94.362 63.3745 94.2741 63.0522 94.209 62.6616C94.1504 62.2645 94.1211 61.8804 94.1211 61.5093ZM94.4629 57.2026L94.4824 58.6577H92.793C92.3568 58.6577 91.9727 58.7 91.6406 58.7847C91.3086 58.8628 91.0319 58.98 90.8105 59.1362C90.5892 59.2925 90.4232 59.4813 90.3125 59.7026C90.2018 59.924 90.1465 60.1746 90.1465 60.4546C90.1465 60.7345 90.2116 60.9917 90.3418 61.2261C90.472 61.4539 90.6608 61.633 90.9082 61.7632C91.1621 61.8934 91.4681 61.9585 91.8262 61.9585C92.3079 61.9585 92.7279 61.8608 93.0859 61.6655C93.4505 61.4637 93.737 61.2196 93.9453 60.9331C94.1536 60.6401 94.2643 60.3634 94.2773 60.103L95.0391 61.1479C94.9609 61.4149 94.8275 61.7013 94.6387 62.0073C94.4499 62.3133 94.2025 62.6063 93.8965 62.8862C93.597 63.1597 93.2357 63.3843 92.8125 63.5601C92.3958 63.7358 91.9141 63.8237 91.3672 63.8237C90.6771 63.8237 90.0618 63.687 89.5215 63.4136C88.9811 63.1336 88.5579 62.7593 88.252 62.2905C87.946 61.8153 87.793 61.2782 87.793 60.6792C87.793 60.1193 87.8971 59.6245 88.1055 59.1948C88.3203 58.7586 88.6328 58.394 89.043 58.1011C89.4596 57.8081 89.9674 57.5868 90.5664 57.437C91.1654 57.2808 91.849 57.2026 92.6172 57.2026H94.4629ZM105.391 61.4409V48.6284H107.754V63.6284H105.615L105.391 61.4409ZM98.5156 58.4624V58.2573C98.5156 57.4565 98.61 56.7274 98.7988 56.0698C98.9876 55.4058 99.2611 54.8361 99.6191 54.3608C99.9772 53.8791 100.413 53.5112 100.928 53.2573C101.442 52.9969 102.021 52.8667 102.666 52.8667C103.304 52.8667 103.864 52.9904 104.346 53.2378C104.827 53.4852 105.238 53.84 105.576 54.3022C105.915 54.758 106.185 55.3049 106.387 55.9429C106.589 56.5744 106.732 57.2775 106.816 58.0522V58.7065C106.732 59.4618 106.589 60.1519 106.387 60.7769C106.185 61.4019 105.915 61.9422 105.576 62.3979C105.238 62.8537 104.824 63.2052 104.336 63.4526C103.854 63.7 103.291 63.8237 102.646 63.8237C102.008 63.8237 101.432 63.6903 100.918 63.4233C100.41 63.1564 99.9772 62.7821 99.6191 62.3003C99.2611 61.8185 98.9876 61.2521 98.7988 60.6011C98.61 59.9435 98.5156 59.2306 98.5156 58.4624ZM100.869 58.2573V58.4624C100.869 58.9442 100.911 59.3934 100.996 59.8101C101.087 60.2267 101.227 60.5946 101.416 60.9136C101.605 61.2261 101.849 61.4735 102.148 61.6558C102.454 61.8315 102.819 61.9194 103.242 61.9194C103.776 61.9194 104.215 61.8022 104.561 61.5679C104.906 61.3335 105.176 61.0177 105.371 60.6206C105.573 60.217 105.71 59.7677 105.781 59.2729V57.5054C105.742 57.1213 105.661 56.7632 105.537 56.4312C105.42 56.0991 105.26 55.8094 105.059 55.562C104.857 55.3081 104.606 55.1128 104.307 54.9761C104.014 54.8328 103.665 54.7612 103.262 54.7612C102.832 54.7612 102.467 54.8524 102.168 55.0347C101.868 55.217 101.621 55.4676 101.426 55.7866C101.237 56.1056 101.097 56.4767 101.006 56.8999C100.915 57.3231 100.869 57.7756 100.869 58.2573ZM109.766 58.4624V58.2378C109.766 57.4761 109.876 56.7697 110.098 56.1187C110.319 55.4611 110.638 54.8914 111.055 54.4097C111.478 53.9214 111.992 53.5438 112.598 53.2769C113.21 53.0034 113.9 52.8667 114.668 52.8667C115.443 52.8667 116.133 53.0034 116.738 53.2769C117.35 53.5438 117.868 53.9214 118.291 54.4097C118.714 54.8914 119.036 55.4611 119.258 56.1187C119.479 56.7697 119.59 57.4761 119.59 58.2378V58.4624C119.59 59.2241 119.479 59.9305 119.258 60.5815C119.036 61.2326 118.714 61.8022 118.291 62.2905C117.868 62.7723 117.354 63.1499 116.748 63.4233C116.143 63.6903 115.456 63.8237 114.688 63.8237C113.913 63.8237 113.219 63.6903 112.607 63.4233C112.002 63.1499 111.488 62.7723 111.064 62.2905C110.641 61.8022 110.319 61.2326 110.098 60.5815C109.876 59.9305 109.766 59.2241 109.766 58.4624ZM112.119 58.2378V58.4624C112.119 58.9377 112.168 59.3869 112.266 59.8101C112.363 60.2332 112.516 60.6043 112.725 60.9233C112.933 61.2424 113.2 61.493 113.525 61.6753C113.851 61.8576 114.238 61.9487 114.688 61.9487C115.124 61.9487 115.501 61.8576 115.82 61.6753C116.146 61.493 116.413 61.2424 116.621 60.9233C116.829 60.6043 116.982 60.2332 117.08 59.8101C117.184 59.3869 117.236 58.9377 117.236 58.4624V58.2378C117.236 57.769 117.184 57.3263 117.08 56.9097C116.982 56.4865 116.826 56.1121 116.611 55.7866C116.403 55.4611 116.136 55.2072 115.811 55.0249C115.492 54.8361 115.111 54.7417 114.668 54.7417C114.225 54.7417 113.841 54.8361 113.516 55.0249C113.197 55.2072 112.933 55.4611 112.725 55.7866C112.516 56.1121 112.363 56.4865 112.266 56.9097C112.168 57.3263 112.119 57.769 112.119 58.2378ZM123.926 55.0737V63.6284H121.572V53.062H123.818L123.926 55.0737ZM127.158 52.9937L127.139 55.1812C126.995 55.1551 126.839 55.1356 126.67 55.1226C126.507 55.1095 126.344 55.103 126.182 55.103C125.778 55.103 125.423 55.1616 125.117 55.2788C124.811 55.3895 124.554 55.5522 124.346 55.7671C124.144 55.9754 123.988 56.2293 123.877 56.5288C123.766 56.8283 123.701 57.1636 123.682 57.5347L123.145 57.5737C123.145 56.9097 123.21 56.2944 123.34 55.728C123.47 55.1616 123.665 54.6636 123.926 54.2339C124.193 53.8042 124.525 53.4689 124.922 53.228C125.326 52.9871 125.791 52.8667 126.318 52.8667C126.462 52.8667 126.615 52.8797 126.777 52.9058C126.947 52.9318 127.074 52.9611 127.158 52.9937ZM140.059 61.4409V48.6284H142.422V63.6284H140.283L140.059 61.4409ZM133.184 58.4624V58.2573C133.184 57.4565 133.278 56.7274 133.467 56.0698C133.656 55.4058 133.929 54.8361 134.287 54.3608C134.645 53.8791 135.081 53.5112 135.596 53.2573C136.11 52.9969 136.689 52.8667 137.334 52.8667C137.972 52.8667 138.532 52.9904 139.014 53.2378C139.495 53.4852 139.906 53.84 140.244 54.3022C140.583 54.758 140.853 55.3049 141.055 55.9429C141.257 56.5744 141.4 57.2775 141.484 58.0522V58.7065C141.4 59.4618 141.257 60.1519 141.055 60.7769C140.853 61.4019 140.583 61.9422 140.244 62.3979C139.906 62.8537 139.492 63.2052 139.004 63.4526C138.522 63.7 137.959 63.8237 137.314 63.8237C136.676 63.8237 136.1 63.6903 135.586 63.4233C135.078 63.1564 134.645 62.7821 134.287 62.3003C133.929 61.8185 133.656 61.2521 133.467 60.6011C133.278 59.9435 133.184 59.2306 133.184 58.4624ZM135.537 58.2573V58.4624C135.537 58.9442 135.579 59.3934 135.664 59.8101C135.755 60.2267 135.895 60.5946 136.084 60.9136C136.273 61.2261 136.517 61.4735 136.816 61.6558C137.122 61.8315 137.487 61.9194 137.91 61.9194C138.444 61.9194 138.883 61.8022 139.229 61.5679C139.574 61.3335 139.844 61.0177 140.039 60.6206C140.241 60.217 140.378 59.7677 140.449 59.2729V57.5054C140.41 57.1213 140.329 56.7632 140.205 56.4312C140.088 56.0991 139.928 55.8094 139.727 55.562C139.525 55.3081 139.274 55.1128 138.975 54.9761C138.682 54.8328 138.333 54.7612 137.93 54.7612C137.5 54.7612 137.135 54.8524 136.836 55.0347C136.536 55.217 136.289 55.4676 136.094 55.7866C135.905 56.1056 135.765 56.4767 135.674 56.8999C135.583 57.3231 135.537 57.7756 135.537 58.2573ZM149.541 63.8237C148.76 63.8237 148.053 63.6968 147.422 63.4429C146.797 63.1825 146.263 62.8211 145.82 62.3589C145.384 61.8966 145.049 61.353 144.814 60.728C144.58 60.103 144.463 59.4292 144.463 58.7065V58.3159C144.463 57.4891 144.583 56.7404 144.824 56.0698C145.065 55.3993 145.4 54.8263 145.83 54.3511C146.26 53.8693 146.768 53.5015 147.354 53.2476C147.939 52.9937 148.574 52.8667 149.258 52.8667C150.013 52.8667 150.674 52.9937 151.24 53.2476C151.807 53.5015 152.275 53.8595 152.646 54.3218C153.024 54.7775 153.304 55.3211 153.486 55.9526C153.675 56.5841 153.77 57.2808 153.77 58.0425V59.0483H145.605V57.3589H151.445V57.1733C151.432 56.7502 151.348 56.353 151.191 55.9819C151.042 55.6108 150.811 55.3114 150.498 55.0835C150.186 54.8556 149.769 54.7417 149.248 54.7417C148.857 54.7417 148.509 54.8263 148.203 54.9956C147.904 55.1584 147.653 55.396 147.451 55.7085C147.249 56.021 147.093 56.3986 146.982 56.8413C146.878 57.2775 146.826 57.769 146.826 58.3159V58.7065C146.826 59.1688 146.888 59.5985 147.012 59.9956C147.142 60.3862 147.331 60.728 147.578 61.021C147.826 61.314 148.125 61.5451 148.477 61.7144C148.828 61.8771 149.229 61.9585 149.678 61.9585C150.244 61.9585 150.749 61.8446 151.191 61.6167C151.634 61.3888 152.018 61.0666 152.344 60.6499L153.584 61.8511C153.356 62.1831 153.06 62.5021 152.695 62.8081C152.331 63.1076 151.885 63.3517 151.357 63.5405C150.837 63.7293 150.231 63.8237 149.541 63.8237ZM168.301 59.9663C168.301 59.6733 168.255 59.4129 168.164 59.1851C168.079 58.9572 167.926 58.7489 167.705 58.5601C167.484 58.3713 167.171 58.189 166.768 58.0132C166.37 57.8309 165.863 57.6453 165.244 57.4565C164.567 57.2482 163.942 57.0171 163.369 56.7632C162.803 56.5028 162.308 56.2033 161.885 55.8647C161.462 55.5197 161.133 55.1258 160.898 54.6831C160.664 54.2339 160.547 53.7163 160.547 53.1304C160.547 52.5509 160.667 52.0236 160.908 51.5483C161.156 51.0731 161.504 50.6629 161.953 50.3179C162.409 49.9663 162.946 49.6961 163.564 49.5073C164.183 49.312 164.867 49.2144 165.615 49.2144C166.67 49.2144 167.578 49.4097 168.34 49.8003C169.108 50.1909 169.697 50.715 170.107 51.3726C170.524 52.0301 170.732 52.756 170.732 53.5503H168.301C168.301 53.0815 168.2 52.6681 167.998 52.3101C167.803 51.9455 167.503 51.659 167.1 51.4507C166.702 51.2424 166.198 51.1382 165.586 51.1382C165.007 51.1382 164.525 51.2261 164.141 51.4019C163.757 51.5776 163.47 51.8153 163.281 52.1147C163.092 52.4142 162.998 52.7528 162.998 53.1304C162.998 53.3973 163.06 53.6414 163.184 53.8628C163.307 54.0776 163.496 54.2795 163.75 54.4683C164.004 54.6506 164.323 54.8231 164.707 54.9858C165.091 55.1486 165.544 55.3049 166.064 55.4546C166.852 55.689 167.539 55.9494 168.125 56.2358C168.711 56.5158 169.199 56.8348 169.59 57.1929C169.98 57.5509 170.273 57.9578 170.469 58.4136C170.664 58.8628 170.762 59.3739 170.762 59.9468C170.762 60.5457 170.641 61.0861 170.4 61.5679C170.16 62.0431 169.814 62.45 169.365 62.7886C168.923 63.1206 168.389 63.3778 167.764 63.5601C167.145 63.7358 166.455 63.8237 165.693 63.8237C165.01 63.8237 164.336 63.7326 163.672 63.5503C163.014 63.368 162.415 63.0913 161.875 62.7202C161.335 62.3426 160.905 61.8739 160.586 61.314C160.267 60.7476 160.107 60.0868 160.107 59.3315H162.559C162.559 59.7938 162.637 60.1877 162.793 60.5132C162.956 60.8387 163.18 61.1056 163.467 61.314C163.753 61.5158 164.085 61.6655 164.463 61.7632C164.847 61.8608 165.257 61.9097 165.693 61.9097C166.266 61.9097 166.745 61.8283 167.129 61.6655C167.52 61.5028 167.812 61.2749 168.008 60.9819C168.203 60.689 168.301 60.3504 168.301 59.9663ZM177.354 63.8237C176.572 63.8237 175.866 63.6968 175.234 63.4429C174.609 63.1825 174.076 62.8211 173.633 62.3589C173.197 61.8966 172.861 61.353 172.627 60.728C172.393 60.103 172.275 59.4292 172.275 58.7065V58.3159C172.275 57.4891 172.396 56.7404 172.637 56.0698C172.878 55.3993 173.213 54.8263 173.643 54.3511C174.072 53.8693 174.58 53.5015 175.166 53.2476C175.752 52.9937 176.387 52.8667 177.07 52.8667C177.826 52.8667 178.486 52.9937 179.053 53.2476C179.619 53.5015 180.088 53.8595 180.459 54.3218C180.837 54.7775 181.117 55.3211 181.299 55.9526C181.488 56.5841 181.582 57.2808 181.582 58.0425V59.0483H173.418V57.3589H179.258V57.1733C179.245 56.7502 179.16 56.353 179.004 55.9819C178.854 55.6108 178.623 55.3114 178.311 55.0835C177.998 54.8556 177.581 54.7417 177.061 54.7417C176.67 54.7417 176.322 54.8263 176.016 54.9956C175.716 55.1584 175.465 55.396 175.264 55.7085C175.062 56.021 174.906 56.3986 174.795 56.8413C174.691 57.2775 174.639 57.769 174.639 58.3159V58.7065C174.639 59.1688 174.701 59.5985 174.824 59.9956C174.954 60.3862 175.143 60.728 175.391 61.021C175.638 61.314 175.938 61.5451 176.289 61.7144C176.641 61.8771 177.041 61.9585 177.49 61.9585C178.057 61.9585 178.561 61.8446 179.004 61.6167C179.447 61.3888 179.831 61.0666 180.156 60.6499L181.396 61.8511C181.169 62.1831 180.872 62.5021 180.508 62.8081C180.143 63.1076 179.697 63.3517 179.17 63.5405C178.649 63.7293 178.044 63.8237 177.354 63.8237ZM185.752 55.3179V63.6284H183.398V53.062H185.615L185.752 55.3179ZM185.332 57.9546L184.57 57.9448C184.577 57.1961 184.681 56.5093 184.883 55.8843C185.091 55.2593 185.378 54.7222 185.742 54.2729C186.113 53.8237 186.556 53.4787 187.07 53.2378C187.585 52.9904 188.158 52.8667 188.789 52.8667C189.297 52.8667 189.756 52.9383 190.166 53.0815C190.583 53.2183 190.938 53.4429 191.23 53.7554C191.53 54.0679 191.758 54.4748 191.914 54.9761C192.07 55.4709 192.148 56.0796 192.148 56.8022V63.6284H189.785V56.7925C189.785 56.2847 189.71 55.8843 189.561 55.5913C189.417 55.2918 189.206 55.0802 188.926 54.9565C188.652 54.8263 188.311 54.7612 187.9 54.7612C187.497 54.7612 187.135 54.8459 186.816 55.0151C186.497 55.1844 186.227 55.4155 186.006 55.7085C185.791 56.0015 185.625 56.34 185.508 56.7241C185.391 57.1082 185.332 57.5184 185.332 57.9546ZM200.479 60.7671C200.479 60.5327 200.42 60.3211 200.303 60.1323C200.186 59.937 199.961 59.7612 199.629 59.605C199.303 59.4487 198.822 59.3055 198.184 59.1753C197.624 59.0516 197.109 58.9051 196.641 58.7358C196.178 58.5601 195.781 58.3485 195.449 58.1011C195.117 57.8537 194.86 57.5607 194.678 57.2222C194.495 56.8836 194.404 56.493 194.404 56.0503C194.404 55.6206 194.499 55.2137 194.688 54.8296C194.876 54.4455 195.146 54.1069 195.498 53.814C195.85 53.521 196.276 53.2899 196.777 53.1206C197.285 52.9513 197.852 52.8667 198.477 52.8667C199.362 52.8667 200.12 53.0164 200.752 53.3159C201.39 53.6089 201.878 54.0093 202.217 54.5171C202.555 55.0184 202.725 55.5848 202.725 56.2163H200.371C200.371 55.9364 200.299 55.6759 200.156 55.4351C200.02 55.1877 199.811 54.9891 199.531 54.8394C199.251 54.6831 198.9 54.605 198.477 54.605C198.073 54.605 197.738 54.6701 197.471 54.8003C197.21 54.924 197.015 55.0868 196.885 55.2886C196.761 55.4904 196.699 55.7118 196.699 55.9526C196.699 56.1284 196.732 56.2879 196.797 56.4312C196.868 56.5679 196.986 56.6948 197.148 56.812C197.311 56.9227 197.533 57.0269 197.812 57.1245C198.099 57.2222 198.457 57.3166 198.887 57.4077C199.694 57.577 200.387 57.7951 200.967 58.062C201.553 58.3224 202.002 58.661 202.314 59.0776C202.627 59.4878 202.783 60.0086 202.783 60.6401C202.783 61.1089 202.682 61.5386 202.48 61.9292C202.285 62.3133 201.999 62.6486 201.621 62.9351C201.243 63.215 200.791 63.4331 200.264 63.5894C199.743 63.7456 199.157 63.8237 198.506 63.8237C197.549 63.8237 196.738 63.6545 196.074 63.3159C195.41 62.9709 194.906 62.5314 194.561 61.9976C194.222 61.4572 194.053 60.8973 194.053 60.3179H196.328C196.354 60.7541 196.475 61.1024 196.689 61.3628C196.911 61.6167 197.184 61.8022 197.51 61.9194C197.842 62.0301 198.184 62.0854 198.535 62.0854C198.958 62.0854 199.313 62.0301 199.6 61.9194C199.886 61.8022 200.104 61.646 200.254 61.4507C200.404 61.2489 200.479 61.021 200.479 60.7671ZM204.395 58.4624V58.2378C204.395 57.4761 204.505 56.7697 204.727 56.1187C204.948 55.4611 205.267 54.8914 205.684 54.4097C206.107 53.9214 206.621 53.5438 207.227 53.2769C207.839 53.0034 208.529 52.8667 209.297 52.8667C210.072 52.8667 210.762 53.0034 211.367 53.2769C211.979 53.5438 212.497 53.9214 212.92 54.4097C213.343 54.8914 213.665 55.4611 213.887 56.1187C214.108 56.7697 214.219 57.4761 214.219 58.2378V58.4624C214.219 59.2241 214.108 59.9305 213.887 60.5815C213.665 61.2326 213.343 61.8022 212.92 62.2905C212.497 62.7723 211.982 63.1499 211.377 63.4233C210.771 63.6903 210.085 63.8237 209.316 63.8237C208.542 63.8237 207.848 63.6903 207.236 63.4233C206.631 63.1499 206.117 62.7723 205.693 62.2905C205.27 61.8022 204.948 61.2326 204.727 60.5815C204.505 59.9305 204.395 59.2241 204.395 58.4624ZM206.748 58.2378V58.4624C206.748 58.9377 206.797 59.3869 206.895 59.8101C206.992 60.2332 207.145 60.6043 207.354 60.9233C207.562 61.2424 207.829 61.493 208.154 61.6753C208.48 61.8576 208.867 61.9487 209.316 61.9487C209.753 61.9487 210.13 61.8576 210.449 61.6753C210.775 61.493 211.042 61.2424 211.25 60.9233C211.458 60.6043 211.611 60.2332 211.709 59.8101C211.813 59.3869 211.865 58.9377 211.865 58.4624V58.2378C211.865 57.769 211.813 57.3263 211.709 56.9097C211.611 56.4865 211.455 56.1121 211.24 55.7866C211.032 55.4611 210.765 55.2072 210.439 55.0249C210.12 54.8361 209.74 54.7417 209.297 54.7417C208.854 54.7417 208.47 54.8361 208.145 55.0249C207.826 55.2072 207.562 55.4611 207.354 55.7866C207.145 56.1121 206.992 56.4865 206.895 56.9097C206.797 57.3263 206.748 57.769 206.748 58.2378ZM218.555 55.0737V63.6284H216.201V53.062H218.447L218.555 55.0737ZM221.787 52.9937L221.768 55.1812C221.624 55.1551 221.468 55.1356 221.299 55.1226C221.136 55.1095 220.973 55.103 220.811 55.103C220.407 55.103 220.052 55.1616 219.746 55.2788C219.44 55.3895 219.183 55.5522 218.975 55.7671C218.773 55.9754 218.617 56.2293 218.506 56.5288C218.395 56.8283 218.33 57.1636 218.311 57.5347L217.773 57.5737C217.773 56.9097 217.839 56.2944 217.969 55.728C218.099 55.1616 218.294 54.6636 218.555 54.2339C218.822 53.8042 219.154 53.4689 219.551 53.228C219.954 52.9871 220.42 52.8667 220.947 52.8667C221.09 52.8667 221.243 52.8797 221.406 52.9058C221.576 52.9318 221.702 52.9611 221.787 52.9937ZM230.928 49.4097V63.6284H228.477V49.4097H230.928ZM236.729 55.6304V57.5737H230.303V55.6304H236.729ZM237.539 49.4097V51.3628H230.303V49.4097H237.539ZM244.883 61.5093V56.4702C244.883 56.0926 244.814 55.7671 244.678 55.4937C244.541 55.2202 244.333 55.0086 244.053 54.8589C243.779 54.7091 243.434 54.6343 243.018 54.6343C242.633 54.6343 242.301 54.6994 242.021 54.8296C241.742 54.9598 241.523 55.1356 241.367 55.3569C241.211 55.5783 241.133 55.8289 241.133 56.1089H238.789C238.789 55.6922 238.89 55.2886 239.092 54.8979C239.294 54.5073 239.587 54.159 239.971 53.853C240.355 53.547 240.814 53.3062 241.348 53.1304C241.882 52.9546 242.48 52.8667 243.145 52.8667C243.939 52.8667 244.642 53.0002 245.254 53.2671C245.872 53.534 246.357 53.9377 246.709 54.478C247.067 55.0119 247.246 55.6825 247.246 56.4897V61.187C247.246 61.6688 247.279 62.1017 247.344 62.4858C247.415 62.8634 247.516 63.1922 247.646 63.4722V63.6284H245.234C245.124 63.3745 245.036 63.0522 244.971 62.6616C244.912 62.2645 244.883 61.8804 244.883 61.5093ZM245.225 57.2026L245.244 58.6577H243.555C243.118 58.6577 242.734 58.7 242.402 58.7847C242.07 58.8628 241.794 58.98 241.572 59.1362C241.351 59.2925 241.185 59.4813 241.074 59.7026C240.964 59.924 240.908 60.1746 240.908 60.4546C240.908 60.7345 240.973 60.9917 241.104 61.2261C241.234 61.4539 241.423 61.633 241.67 61.7632C241.924 61.8934 242.23 61.9585 242.588 61.9585C243.07 61.9585 243.49 61.8608 243.848 61.6655C244.212 61.4637 244.499 61.2196 244.707 60.9331C244.915 60.6401 245.026 60.3634 245.039 60.103L245.801 61.1479C245.723 61.4149 245.589 61.7013 245.4 62.0073C245.212 62.3133 244.964 62.6063 244.658 62.8862C244.359 63.1597 243.997 63.3843 243.574 63.5601C243.158 63.7358 242.676 63.8237 242.129 63.8237C241.439 63.8237 240.824 63.687 240.283 63.4136C239.743 63.1336 239.32 62.7593 239.014 62.2905C238.708 61.8153 238.555 61.2782 238.555 60.6792C238.555 60.1193 238.659 59.6245 238.867 59.1948C239.082 58.7586 239.395 58.394 239.805 58.1011C240.221 57.8081 240.729 57.5868 241.328 57.437C241.927 57.2808 242.611 57.2026 243.379 57.2026H245.225ZM254.023 61.9487C254.408 61.9487 254.753 61.8739 255.059 61.7241C255.371 61.5679 255.622 61.353 255.811 61.0796C256.006 60.8062 256.113 60.4904 256.133 60.1323H258.35C258.337 60.8159 258.135 61.4377 257.744 61.9976C257.354 62.5575 256.836 63.0034 256.191 63.3354C255.547 63.661 254.834 63.8237 254.053 63.8237C253.245 63.8237 252.542 63.687 251.943 63.4136C251.344 63.1336 250.846 62.7495 250.449 62.2612C250.052 61.7729 249.753 61.2098 249.551 60.5718C249.355 59.9338 249.258 59.2502 249.258 58.521V58.1792C249.258 57.45 249.355 56.7664 249.551 56.1284C249.753 55.4839 250.052 54.9175 250.449 54.4292C250.846 53.9409 251.344 53.5601 251.943 53.2866C252.542 53.0067 253.242 52.8667 254.043 52.8667C254.889 52.8667 255.632 53.036 256.27 53.3745C256.908 53.7065 257.409 54.172 257.773 54.771C258.145 55.3634 258.337 56.0535 258.35 56.8413H256.133C256.113 56.4507 256.016 56.0991 255.84 55.7866C255.671 55.4676 255.43 55.2137 255.117 55.0249C254.811 54.8361 254.443 54.7417 254.014 54.7417C253.538 54.7417 253.145 54.8394 252.832 55.0347C252.52 55.2235 252.275 55.4839 252.1 55.8159C251.924 56.1414 251.797 56.5093 251.719 56.9194C251.647 57.3231 251.611 57.743 251.611 58.1792V58.521C251.611 58.9572 251.647 59.3804 251.719 59.7905C251.79 60.2007 251.914 60.5685 252.09 60.894C252.272 61.2131 252.52 61.4702 252.832 61.6655C253.145 61.8543 253.542 61.9487 254.023 61.9487ZM262.676 53.062V63.6284H260.312V53.062H262.676ZM260.156 50.2886C260.156 49.9305 260.273 49.6343 260.508 49.3999C260.749 49.159 261.081 49.0386 261.504 49.0386C261.921 49.0386 262.249 49.159 262.49 49.3999C262.731 49.6343 262.852 49.9305 262.852 50.2886C262.852 50.6401 262.731 50.9331 262.49 51.1675C262.249 51.4019 261.921 51.519 261.504 51.519C261.081 51.519 260.749 51.4019 260.508 51.1675C260.273 50.9331 260.156 50.6401 260.156 50.2886ZM271.211 61.5093V56.4702C271.211 56.0926 271.143 55.7671 271.006 55.4937C270.869 55.2202 270.661 55.0086 270.381 54.8589C270.107 54.7091 269.762 54.6343 269.346 54.6343C268.962 54.6343 268.63 54.6994 268.35 54.8296C268.07 54.9598 267.852 55.1356 267.695 55.3569C267.539 55.5783 267.461 55.8289 267.461 56.1089H265.117C265.117 55.6922 265.218 55.2886 265.42 54.8979C265.622 54.5073 265.915 54.159 266.299 53.853C266.683 53.547 267.142 53.3062 267.676 53.1304C268.21 52.9546 268.809 52.8667 269.473 52.8667C270.267 52.8667 270.97 53.0002 271.582 53.2671C272.201 53.534 272.686 53.9377 273.037 54.478C273.395 55.0119 273.574 55.6825 273.574 56.4897V61.187C273.574 61.6688 273.607 62.1017 273.672 62.4858C273.743 62.8634 273.844 63.1922 273.975 63.4722V63.6284H271.562C271.452 63.3745 271.364 63.0522 271.299 62.6616C271.24 62.2645 271.211 61.8804 271.211 61.5093ZM271.553 57.2026L271.572 58.6577H269.883C269.447 58.6577 269.062 58.7 268.73 58.7847C268.398 58.8628 268.122 58.98 267.9 59.1362C267.679 59.2925 267.513 59.4813 267.402 59.7026C267.292 59.924 267.236 60.1746 267.236 60.4546C267.236 60.7345 267.301 60.9917 267.432 61.2261C267.562 61.4539 267.751 61.633 267.998 61.7632C268.252 61.8934 268.558 61.9585 268.916 61.9585C269.398 61.9585 269.818 61.8608 270.176 61.6655C270.54 61.4637 270.827 61.2196 271.035 60.9331C271.243 60.6401 271.354 60.3634 271.367 60.103L272.129 61.1479C272.051 61.4149 271.917 61.7013 271.729 62.0073C271.54 62.3133 271.292 62.6063 270.986 62.8862C270.687 63.1597 270.326 63.3843 269.902 63.5601C269.486 63.7358 269.004 63.8237 268.457 63.8237C267.767 63.8237 267.152 63.687 266.611 63.4136C266.071 63.1336 265.648 62.7593 265.342 62.2905C265.036 61.8153 264.883 61.2782 264.883 60.6792C264.883 60.1193 264.987 59.6245 265.195 59.1948C265.41 58.7586 265.723 58.394 266.133 58.1011C266.549 57.8081 267.057 57.5868 267.656 57.437C268.255 57.2808 268.939 57.2026 269.707 57.2026H271.553ZM278.555 48.6284V63.6284H276.191V48.6284H278.555Z" fill="#142D57"/>
</svg>
